<?xml version="1.0" encoding="iso-8859-1"?>
<!-- Generator: Adobe Illustrator 19.0.0, SVG Export Plug-In . SVG Version: 6.00 Build 0)  -->
<svg version="1.1" id="Capa_1" xmlns="http://www.w3.org/2000/svg" xmlns:xlink="http://www.w3.org/1999/xlink" x="0px" y="0px"
	 viewBox="0 0 511 511" style="enable-background:new 0 0 511 511;" xml:space="preserve">
<g>
	<path d="M255.5,200c-30.603,0-55.5,24.897-55.5,55.5s24.897,55.5,55.5,55.5s55.5-24.897,55.5-55.5S286.103,200,255.5,200z
		 M255.5,296c-22.332,0-40.5-18.168-40.5-40.5s18.168-40.5,40.5-40.5s40.5,18.168,40.5,40.5S277.832,296,255.5,296z"/>
	<path d="M255.5,232c-4.142,0-7.5,3.358-7.5,7.5s3.358,7.5,7.5,7.5c4.687,0,8.5,3.813,8.5,8.5c0,4.142,3.358,7.5,7.5,7.5
		s7.5-3.358,7.5-7.5C279,242.542,268.458,232,255.5,232z"/>
	<path d="M511,255.5c0-30.444-20.567-58.962-58.39-81.646c10.706-42.785,5.083-77.493-16.444-99.02
		c-21.527-21.527-56.235-27.15-99.02-16.444C314.462,20.567,285.944,0,255.5,0c-30.444,0-58.962,20.567-81.646,58.39
		c-42.785-10.705-77.492-5.083-99.02,16.444c-21.527,21.527-27.15,56.235-16.444,99.02C20.567,196.538,0,225.056,0,255.5
		s20.567,58.962,58.39,81.646c-10.706,42.785-5.083,77.493,16.444,99.02c14.444,14.444,34.813,21.733,59.583,21.732
		c12.148,0,25.358-1.757,39.441-5.281C196.541,490.436,225.057,511,255.5,511c30.443,0,58.959-20.564,81.642-58.384
		c14.083,3.524,27.291,5.281,39.441,5.281c24.766,0,45.14-7.289,59.583-21.732c21.527-21.527,27.15-56.235,16.444-99.02
		C490.433,314.462,511,285.944,511,255.5z M376.595,68.059c20.676,0,37.404,5.821,48.964,17.382
		c17.036,17.036,21.594,45.294,13.444,80.881c-1.601-0.817-3.223-1.627-4.873-2.426c-19.189-9.285-40.892-16.892-64.346-22.679
		c-5.787-23.454-13.394-45.158-22.679-64.346c-0.799-1.652-1.61-3.276-2.428-4.878C356.115,69.372,366.8,68.059,376.595,68.059z
		 M329.853,435.004c-2.599-0.804-5.226-1.661-7.889-2.587c-17.08-5.941-34.634-14.143-52.234-24.3
		c12.629-8.349,25.182-17.613,37.516-27.691c15.847-1.596,31.274-3.922,46.108-6.948c-5.263,19.627-11.876,37.839-19.752,54.117
		C332.374,430.134,331.122,432.598,329.853,435.004z M177.398,427.596c-7.877-16.279-14.49-34.491-19.752-54.117
		c14.834,3.026,30.26,5.352,46.108,6.948c12.335,10.077,24.888,19.341,37.516,27.691c-17.599,10.157-35.154,18.359-52.234,24.3
		c-2.663,0.926-5.29,1.784-7.889,2.587C179.878,432.598,178.626,430.134,177.398,427.596z M181.149,75.994
		c2.598,0.803,5.226,1.664,7.888,2.59c17.08,5.941,34.634,14.143,52.234,24.3c-12.629,8.349-25.182,17.613-37.516,27.691
		c-15.847,1.596-31.274,3.922-46.108,6.948c5.263-19.627,11.876-37.839,19.752-54.117C178.627,80.866,179.879,78.4,181.149,75.994z
		 M333.602,83.404c7.877,16.279,14.49,34.491,19.752,54.117c-14.833-3.026-30.26-5.352-46.107-6.948
		c-12.335-10.077-24.888-19.341-37.516-27.691c17.599-10.157,35.154-18.359,52.234-24.3c2.662-0.926,5.29-1.786,7.888-2.59
		C331.121,78.4,332.373,80.866,333.602,83.404z M368,255.5c0,15.529-0.702,30.826-2.061,45.746
		c-9.589,11.51-19.909,22.823-30.889,33.804s-22.293,21.3-33.804,30.889C286.326,367.298,271.029,368,255.5,368
		s-30.826-0.702-45.746-2.061c-11.51-9.589-22.823-19.909-33.804-30.889s-21.3-22.293-30.889-33.804
		C143.702,286.326,143,271.029,143,255.5s0.702-30.826,2.061-45.746c9.589-11.51,19.909-22.823,30.889-33.804
		s22.293-21.3,33.804-30.889c14.92-1.358,30.217-2.061,45.746-2.061s30.826,0.702,45.746,2.061
		c11.51,9.589,22.823,19.909,33.804,30.889s21.3,22.293,30.889,33.804C367.298,224.674,368,239.971,368,255.5z M345.656,165.344
		c-5.892-5.892-11.881-11.603-17.946-17.122c10.119,1.507,20.001,3.334,29.6,5.468c2.133,9.599,3.961,19.482,5.468,29.6
		C357.259,177.225,351.549,171.236,345.656,165.344z M280.298,128.582C272.106,128.197,263.833,128,255.5,128
		s-16.606,0.197-24.798,0.582c8.221-6.089,16.501-11.785,24.798-17.065C263.797,116.797,272.077,122.493,280.298,128.582z
		 M183.29,148.222c-6.065,5.519-12.053,11.23-17.946,17.122c-5.892,5.892-11.603,11.881-17.122,17.946
		c1.507-10.119,3.334-20.001,5.468-29.6C163.289,151.556,173.171,149.729,183.29,148.222z M130.574,203.754
		c-10.077,12.334-19.341,24.888-27.691,37.516c-10.157-17.599-18.359-35.154-24.3-52.234c-0.926-2.663-1.784-5.29-2.587-7.889
		c2.406-1.269,4.87-2.521,7.408-3.749c16.279-7.877,34.491-14.49,54.117-19.752C134.496,172.479,132.17,187.906,130.574,203.754z
		 M128.582,230.702C128.197,238.894,128,247.167,128,255.5s0.197,16.606,0.582,24.798c-6.089-8.221-11.785-16.501-17.065-24.798
		C116.797,247.203,122.493,238.923,128.582,230.702z M130.574,307.246c1.596,15.847,3.922,31.274,6.948,46.108
		c-19.627-5.263-37.839-11.876-54.117-19.752c-2.538-1.228-5.002-2.479-7.408-3.749c0.804-2.599,1.661-5.226,2.587-7.889
		c5.941-17.08,14.143-34.634,24.3-52.234C111.233,282.359,120.497,294.912,130.574,307.246z M148.222,327.71
		c5.519,6.065,11.23,12.053,17.122,17.946c5.892,5.892,11.881,11.603,17.946,17.122c-10.119-1.507-20.001-3.334-29.6-5.468
		C151.556,347.711,149.729,337.829,148.222,327.71z M230.702,382.418c8.191,0.386,16.464,0.582,24.798,0.582
		s16.606-0.197,24.798-0.582c-8.221,6.089-16.501,11.785-24.798,17.065C247.203,394.203,238.923,388.507,230.702,382.418z
		 M327.71,362.778c6.065-5.519,12.053-11.23,17.946-17.122s11.603-11.881,17.122-17.946c-1.507,10.119-3.335,20.001-5.468,29.6
		C347.711,359.444,337.829,361.271,327.71,362.778z M380.426,307.246c10.077-12.334,19.341-24.888,27.69-37.516
		c10.157,17.599,18.359,35.154,24.3,52.234c0.926,2.663,1.784,5.29,2.587,7.889c-2.406,1.269-4.87,2.521-7.408,3.749
		c-16.279,7.877-34.491,14.49-54.117,19.752C376.504,338.52,378.83,323.094,380.426,307.246z M382.418,280.298
		c0.386-8.191,0.582-16.464,0.582-24.798s-0.197-16.606-0.582-24.798c6.089,8.221,11.785,16.501,17.065,24.798
		C394.203,263.797,388.507,272.077,382.418,280.298z M380.426,203.754c-1.596-15.847-3.922-31.274-6.948-46.108
		c19.627,5.263,37.839,11.876,54.117,19.752c2.538,1.228,5.002,2.479,7.408,3.749c-0.804,2.599-1.661,5.226-2.587,7.889
		c-5.941,17.08-14.143,34.634-24.3,52.234C399.767,228.641,390.503,216.088,380.426,203.754z M255.5,15
		c24.093,0,47.298,16.759,66.698,47.686c-1.71,0.554-3.429,1.129-5.161,1.731c-20.134,7.003-40.859,16.97-61.536,29.463
		c-20.677-12.493-41.402-22.46-61.536-29.463c-1.732-0.602-3.451-1.177-5.161-1.731C208.203,31.759,231.407,15,255.5,15z
		 M85.441,85.441c11.562-11.562,28.285-17.382,48.964-17.382c9.794,0,20.48,1.313,31.919,3.933
		c-0.818,1.603-1.629,3.226-2.428,4.878c-9.285,19.189-16.892,40.892-22.679,64.346c-23.454,5.787-45.158,13.394-64.346,22.679
		c-1.651,0.799-3.272,1.608-4.873,2.426C63.847,130.735,68.405,102.477,85.441,85.441z M15,255.5
		c0-24.093,16.759-47.298,47.686-66.698c0.554,1.71,1.129,3.429,1.731,5.161c7.003,20.134,16.97,40.859,29.463,61.536
		c-12.493,20.677-22.46,41.402-29.463,61.536c-0.602,1.732-1.177,3.451-1.731,5.161C31.759,302.797,15,279.593,15,255.5z
		 M85.441,425.559c-17.036-17.036-21.594-45.294-13.444-80.881c1.601,0.817,3.223,1.627,4.873,2.426
		c19.189,9.285,40.892,16.892,64.346,22.679c5.787,23.454,13.394,45.157,22.679,64.346c0.799,1.651,1.608,3.272,2.426,4.873
		C130.735,447.153,102.477,442.595,85.441,425.559z M255.5,496c-24.094,0-47.299-16.76-66.7-47.689
		c1.712-0.555,3.43-1.124,5.163-1.727c20.134-7.003,40.859-16.97,61.536-29.463c20.677,12.493,41.402,22.46,61.536,29.463
		c1.733,0.603,3.452,1.173,5.164,1.727C302.799,479.24,279.594,496,255.5,496z M425.559,425.559
		c-17.036,17.037-45.294,21.595-80.881,13.444c0.817-1.601,1.627-3.223,2.426-4.874c9.285-19.189,16.892-40.892,22.679-64.346
		c23.454-5.787,45.157-13.394,64.346-22.679c1.651-0.799,3.272-1.608,4.873-2.426C447.153,380.265,442.595,408.523,425.559,425.559z
		 M448.314,322.197c-0.554-1.71-1.128-3.429-1.731-5.161c-7.003-20.134-16.97-40.859-29.463-61.536
		c12.493-20.677,22.46-41.402,29.463-61.536c0.602-1.732,1.177-3.451,1.731-5.161C479.242,208.202,496,231.407,496,255.5
		S479.241,302.797,448.314,322.197z"/>
</g>
<g>
</g>
<g>
</g>
<g>
</g>
<g>
</g>
<g>
</g>
<g>
</g>
<g>
</g>
<g>
</g>
<g>
</g>
<g>
</g>
<g>
</g>
<g>
</g>
<g>
</g>
<g>
</g>
<g>
</g>
</svg>
